<?xml version="1.0" encoding="UTF-8" standalone="no"?>
<svg
   xmlns:dc="http://purl.org/dc/elements/1.1/"
   xmlns:cc="http://creativecommons.org/ns#"
   xmlns:rdf="http://www.w3.org/1999/02/22-rdf-syntax-ns#"
   xmlns:svg="http://www.w3.org/2000/svg"
   xmlns="http://www.w3.org/2000/svg"
   xmlns:sodipodi="http://sodipodi.sourceforge.net/DTD/sodipodi-0.dtd"
   xmlns:inkscape="http://www.inkscape.org/namespaces/inkscape"
   version="1.0"
   width="720"
   height="920"
   id="svg3113"
   inkscape:version="0.48.0 r9654"
   sodipodi:docname="2011q2.svg">
  <metadata
     id="metadata3201">
    <rdf:RDF>
      <cc:Work
         rdf:about="">
        <dc:format>image/svg+xml</dc:format>
        <dc:type
           rdf:resource="http://purl.org/dc/dcmitype/StillImage" />
        <dc:title></dc:title>
      </cc:Work>
    </rdf:RDF>
  </metadata>
  <sodipodi:namedview
     pagecolor="#ffffff"
     bordercolor="#666666"
     borderopacity="1"
     objecttolerance="10"
     gridtolerance="10"
     guidetolerance="10"
     inkscape:pageopacity="0"
     inkscape:pageshadow="2"
     inkscape:window-width="1600"
     inkscape:window-height="875"
     id="namedview3199"
     showgrid="false"
     inkscape:zoom="0.64130435"
     inkscape:cx="410.58356"
     inkscape:cy="449.76996"
     inkscape:window-x="1920"
     inkscape:window-y="1"
     inkscape:window-maximized="1"
     inkscape:current-layer="svg3113" />
  <!--
This is meant as a general-purpose icon for representing a calendar date;
specifically, for things like holidays.
-->
  <defs
     id="defs3115">
    <style
       type="text/css"
       id="style3117">
.bg { fill: white; }
.monthbg { fill: #E0E0FF; }
.line {
	fill: none;
	stroke: #8080C0;
	stroke-width: 20;
	stroke-linecap: square;
}
.mark { fill: red; opacity: 0.75; }
.dates {
	font-family: &quot;Helvetica&quot;, sans-serif; /* doesn't really matter */
	font-size: 30px;
	fill: black;
	text-anchor: start;
}
.month {
	font-family: &quot;Helvetica&quot;, sans-serif;
	font-weight: bold;
	font-size: 100px;
	fill: black;
	text-anchor: middle;
}
</style>
  </defs>
  <rect
     class="monthbg"
     x="10"
     y="10"
     width="700"
     height="150"
     id="rect3119" />
  <rect
     class="bg"
     x="10"
     y="160"
     width="700"
     height="600"
     id="rect3121" />
  <rect
     class="bg"
     x="10"
     y="760"
     width="300"
     height="150"
     id="rect3123" />
  <path
     class="line"
     d="  M 10 10    h 700  m -700 150 h 700  m -700 150 h 700  m -700 150 h 700  m -700 150 h 700  m -700 150 h 700  m -700 150 h 300   M 10 10    v 900  m 100 -750 v 750  m 100 -750 v 750  m 100 -750 v 750  m 100 -750 v 600  m 100 -600 v 600  m 100 -600 v 600  m 100 -750 v 750 "
     id="path3125" />
  <g
     class="dates"
     transform="translate(25,50)"
     id="g3127">
    <text
       x="0"
       y="150"
       id="text3129" />
    <text
       x="100"
       y="150"
       id="text3131">1</text>
    <text
       x="200"
       y="150"
       id="text3133">2</text>
    <text
       x="300"
       y="150"
       id="text3135">3</text>
    <text
       x="400"
       y="150"
       id="text3137">4</text>
    <text
       x="500"
       y="150"
       id="text3139">5</text>
    <text
       x="600"
       y="150"
       id="text3141">6</text>
    <text
       x="0"
       y="300"
       id="text3143">7</text>
    <text
       x="100"
       y="300"
       id="text3145">8</text>
    <text
       x="200"
       y="300"
       id="text3147">9</text>
    <text
       x="300"
       y="300"
       id="text3149">10</text>
    <text
       x="400"
       y="300"
       id="text3151">11</text>
    <text
       x="500"
       y="300"
       id="text3153">12</text>
    <text
       x="600"
       y="300"
       id="text3155">13</text>
    <text
       x="  0"
       y="450"
       id="text3157">15</text>
    <text
       x="100"
       y="450"
       id="text3159">16</text>
    <text
       x="200"
       y="450"
       id="text3161">17</text>
    <text
       x="300"
       y="450"
       id="text3163">18</text>
    <text
       x="400"
       y="450"
       id="text3165">19</text>
    <text
       x="500"
       y="450"
       id="text3167">20</text>
    <text
       x="600"
       y="450"
       id="text3169">21</text>
    <text
       x="  0"
       y="600"
       id="text3171">22</text>
    <text
       x="100"
       y="600"
       id="text3173">23</text>
    <text
       x="200"
       y="600"
       id="text3175">24</text>
    <text
       x="300"
       y="600"
       id="text3177">25</text>
    <text
       x="400"
       y="600"
       id="text3179">26</text>
    <text
       x="500"
       y="600"
       id="text3181">27</text>
    <text
       x="600"
       y="600"
       id="text3183">28</text>
    <text
       x="  0"
       y="750"
       id="text3185">29</text>
    <text
       x="100"
       y="750"
       id="text3187">30</text>
    <text
       x="200"
       y="750"
       id="text3189">31</text>
  </g>
  <text
     class="month"
     x="360"
     y="120"
     id="text3191"
     style="font-size:100px;font-weight:bold;text-anchor:middle;fill:#000000;font-family:'&quot;Helvetica&quot;, sans-serif'">Aug. 2011</text>
  <g
     class="mark"
     transform="translate(-201.55933,-159.05084)"
     id="g3193"
     style="opacity:0.75;fill:#ff0000">
    <rect
       x="440"
       y="270"
       width="40"
       height="250"
       transform="matrix(0.8660254,-0.5,0.5,0.8660254,-135.87169,282.91997)"
       id="rect3195" />
    <rect
       x="440"
       y="270"
       width="40"
       height="250"
       transform="matrix(0.8660254,0.5,-0.5,0.8660254,259.12831,-177.08003)"
       id="rect3197" />
  </g>
</svg>
